# xmcd
#
# Track frame offsets: 
#        150
#        19495
#        40796
#        58991
#        75789
#        96116
#        118723
#        150843
#        177718
#        194397
#
# Disc length: 3034 seconds
#
# Revision: 0
# Processed by: cddbd v1.5.2PL0 Copyright (c) Steve Scherf et al.
# Submitted via: ExactAudioCopy v0.99pb4
#
DISCID=7a0bd80a
DTITLE=Gwyn Ashton - Radiogram
DYEAR=2012
DGENRE=Blues/Rock
TTITLE0=Little Girl
TTITLE1=I Don't Wanna Fall In Love
TTITLE2=Let Me In
TTITLE3=Fortunate Kind
TTITLE4=I Just Wanna Make Love to You
TTITLE5=Dog Eat Dog
TTITLE6=Angel
TTITLE7=For Your Love
TTITLE8=Comin' Home
TTITLE9=Bluz for Roy
EXTD=
EXTT0=
EXTT1=
EXTT2=
EXTT3=
EXTT4=
EXTT5=
EXTT6=
EXTT7=
EXTT8=
EXTT9=
PLAYORDER=
